<svg width="10.020004" height="5.003906" viewBox="0 0 10.02 5.00391" fill="none" xmlns="http://www.w3.org/2000/svg" xmlns:xlink="http://www.w3.org/1999/xlink">
<path id="Vector" d="M5.00214 5.0022C4.83521 5.00244 4.67342 4.94434 4.54488 4.83789L0.258102 1.26538C0.112198 1.14429 0.0204391 0.969971 0.00302124 0.781006C-0.0143967 0.592041 0.0439529 0.404053 0.165222 0.258057C0.286491 0.112305 0.460762 0.0205078 0.649681 0.00292969C0.838608 -0.0144043 1.02671 0.0439453 1.17262 0.165283L5.00214 3.36597L8.83167 0.279541C8.90475 0.220215 8.98884 0.175781 9.0791 0.14917C9.16937 0.122314 9.26403 0.11377 9.35764 0.123779C9.45126 0.133545 9.54198 0.162109 9.6246 0.207275C9.70722 0.252197 9.78011 0.313232 9.83907 0.386719C9.9045 0.460205 9.95405 0.546387 9.98462 0.639893C10.0152 0.733398 10.0261 0.832275 10.0167 0.930176C10.0073 1.02808 9.97784 1.12305 9.93005 1.20898C9.88226 1.29492 9.81724 1.37012 9.73904 1.42993L5.45226 4.88062C5.32001 4.97046 5.16154 5.01318 5.00214 5.0022Z" fill="#6F6E6E" fill-opacity="1.000000" fill-rule="nonzero"/>
            </svg>   